<svg xmlns="http://www.w3.org/2000/svg" version="1.1" xmlns:xlink="http://www.w3.org/1999/xlink" xmlns:svgjs="http://svgjs.dev/svgjs" width="2000" height="636" viewBox="0 0 2000 636"><g transform="matrix(1,0,0,1,-1.2121212121212466,0.9504534656221608)"><svg viewBox="0 0 396 126" data-background-color="#ffffff" preserveAspectRatio="xMidYMid meet" height="636" width="2000" xmlns="http://www.w3.org/2000/svg" xmlns:xlink="http://www.w3.org/1999/xlink"><g id="tight-bounds" transform="matrix(1,0,0,1,0.2400000000000091,-0.18829738469872837)"><svg viewBox="0 0 395.52 126.37659476939746" height="126.37659476939746" width="395.52"><g><svg viewBox="0 0 629.0683820454631 200.99999999999997" height="126.37659476939746" width="395.52"><g><rect width="5.494530596269728" height="200.99999999999997" x="213.78136823542008" y="0" fill="#6575a8" opacity="1" stroke-width="0" stroke="transparent" fill-opacity="1" class="rect-yte-0" data-fill-palette-color="primary" rx="1%" id="yte-0" data-palette-color="#6575a8"></rect></g><g transform="matrix(1,0,0,1,233.65948678003988,0.4999999999999858)"><svg viewBox="0 0 395.40889526542327 200" height="200" width="395.40889526542327"><g id="textblocktransform"><svg viewBox="0 0 395.40889526542327 200" height="200" width="395.40889526542327" id="textblock"><g><svg viewBox="0 0 395.40889526542327 200" height="200" width="395.40889526542327"><g transform="matrix(1,0,0,1,0,0)"><svg width="395.40889526542327" viewBox="2.549999999999993 -31.25 206.70000000000002 101.55000000000001" height="200" data-palette-color="#6575a8"><svg></svg><svg></svg><svg></svg><g class="wordmark-text-0" data-fill-palette-color="primary" id="text-0"><path d="M20.65-22.3c-0.4-4.567-2.35-6.85-5.85-6.85v0c-1.9 0-3.367 0.5-4.4 1.5-1.033 1-1.75 2.483-2.15 4.45-0.4 1.967-0.6 4.6-0.6 7.9v0c0 3.267 0.2 5.873 0.6 7.82 0.4 1.953 1.117 3.43 2.15 4.43 1.033 1 2.5 1.5 4.4 1.5v0c2.1 0 3.61-0.71 4.53-2.13 0.913-1.413 1.403-3.403 1.47-5.97v0l4.15 0.15c-0.267 3.333-1.133 5.85-2.6 7.55-1.467 1.7-3.983 2.55-7.55 2.55v0c-3.133 0-5.6-0.61-7.4-1.83-1.8-1.213-3.057-2.97-3.77-5.27-0.72-2.3-1.08-5.233-1.08-8.8v0c0-3.567 0.36-6.51 1.08-8.83 0.713-2.313 1.963-4.08 3.75-5.3 1.78-1.213 4.253-1.82 7.42-1.82v0c3.367 0 5.783 0.69 7.25 2.07 1.467 1.387 2.367 3.43 2.7 6.13v0zM48.05 0l-2.95-9.15h-12.2l-2.9 9.15h-2.9l9.9-30.65h6.1l9.9 30.65zM33.7-11.6h10.6l-5.3-16.65zM67.65-30.65c3.533 0 6.033 0.907 7.5 2.72 1.467 1.82 2.2 4.18 2.2 7.08v0c0 2.9-0.733 5.25-2.2 7.05-1.467 1.8-3.967 2.7-7.5 2.7v0h-5v11.1h-5.1v-30.65zM66.95-12.9c1.833 0 3.177-0.7 4.03-2.1 0.847-1.4 1.27-3.35 1.27-5.85v0c0-2.467-0.423-4.4-1.27-5.8-0.853-1.4-2.197-2.1-4.03-2.1v0h-4.3v15.85zM91.35-31.25c3.133 0 5.55 0.74 7.25 2.22 1.7 1.487 2.75 3.763 3.15 6.83v0l-4.15 0.55c-0.167-2.4-0.79-4.25-1.87-5.55-1.087-1.3-2.547-1.95-4.38-1.95v0c-1.967 0-3.473 0.473-4.52 1.42-1.053 0.953-1.58 2.297-1.58 4.03v0c0 1.6 0.427 2.807 1.28 3.62 0.847 0.82 2.37 1.513 4.57 2.08v0l2.75 0.7c2.967 0.833 5.067 1.933 6.3 3.3 1.233 1.367 1.85 3.267 1.85 5.7v0c0 2.867-0.933 5.067-2.8 6.6-1.867 1.533-4.533 2.3-8 2.3v0c-3.3 0-5.823-0.743-7.57-2.23-1.753-1.48-2.813-3.753-3.18-6.82v0l4.05-0.6c0.267 2.4 0.967 4.25 2.1 5.55 1.133 1.3 2.667 1.95 4.6 1.95v0c4.333 0 6.5-1.833 6.5-5.5v0c0-1.1-0.183-1.983-0.55-2.65-0.367-0.667-0.973-1.227-1.82-1.68-0.853-0.447-2.097-0.87-3.73-1.27v0l-2.55-0.65c-2.967-0.767-5.04-1.843-6.22-3.23-1.187-1.38-1.78-3.337-1.78-5.87v0c0-2.9 0.873-5.1 2.62-6.6 1.753-1.5 4.313-2.25 7.68-2.25zM104-30.65h21.4v2.55h-8.1v28.1h-5.1v-28.1h-8.2zM140.25 0.6c-4.2 0-7.307-1.293-9.32-3.88-2.02-2.58-3.03-6.587-3.03-12.02v0c0-5.5 1-9.533 3-12.1 2-2.567 5.117-3.85 9.35-3.85v0c4.267 0 7.4 1.29 9.4 3.87 2 2.587 3 6.613 3 12.08v0c0 5.433-1.007 9.44-3.02 12.02-2.02 2.587-5.147 3.88-9.38 3.88zM140.25-1.55c2.467 0 4.3-1.127 5.5-3.38 1.2-2.247 1.8-5.703 1.8-10.37v0c0-4.733-0.6-8.227-1.8-10.48-1.2-2.247-3.033-3.37-5.5-3.37v0c-2.467 0-4.29 1.117-5.47 3.35-1.187 2.233-1.78 5.733-1.78 10.5v0c0 4.733 0.593 8.207 1.78 10.42 1.18 2.22 3.003 3.33 5.47 3.33zM183.15-0.05l0.05 0.05h-5.55l-15.1-25.6v25.6h-3v-30.65h5.45l15.15 25.55v-25.55h3zM196.5-2.55h12.75v2.55h-17.85v-30.65h16.95v2.55h-11.85v11.15h10.8v2.65h-10.8z" fill="#6575a8" fill-rule="nonzero" stroke="none" stroke-width="1" stroke-linecap="butt" stroke-linejoin="miter" stroke-miterlimit="10" stroke-dasharray="" stroke-dashoffset="0" font-family="none" font-weight="none" font-size="none" text-anchor="none" style="mix-blend-mode: normal" data-fill-palette-color="primary" opacity="1"></path><path transform="translate(0,34.85)" d="M14.2-30.65c3.533 0 6.033 0.907 7.5 2.72 1.467 1.82 2.2 4.18 2.2 7.08v0c0 2.9-0.733 5.25-2.2 7.05-1.467 1.8-3.967 2.7-7.5 2.7v0h-5v11.1h-5.1v-30.65zM13.5-12.9c1.833 0 3.177-0.7 4.03-2.1 0.847-1.4 1.27-3.35 1.27-5.85v0c0-2.467-0.423-4.4-1.27-5.8-0.853-1.4-2.197-2.1-4.03-2.1v0h-4.3v15.85zM45.9-11.1l4.6 11.1h-5.5l-4.3-10.65c-0.4-0.967-0.89-1.61-1.47-1.93-0.587-0.313-1.48-0.47-2.68-0.47v0h-2.35v13.05h-5.1v-30.65h10.25c3.633 0 6.183 0.89 7.65 2.67 1.467 1.787 2.2 3.947 2.2 6.48v0c0 1.867-0.44 3.523-1.32 4.97-0.887 1.453-2.413 2.463-4.58 3.03v0c1.2 0.433 2.067 1.233 2.6 2.4zM34.2-14.9h4.6c1.8 0 3.133-0.64 4-1.92 0.867-1.287 1.3-2.847 1.3-4.68v0c0-2.033-0.433-3.75-1.3-5.15-0.867-1.4-2.2-2.1-4-2.1v0h-4.6zM67.45 0.6c-4.2 0-7.307-1.293-9.32-3.88-2.02-2.58-3.03-6.587-3.03-12.02v0c0-5.5 1-9.533 3-12.1 2-2.567 5.117-3.85 9.35-3.85v0c4.267 0 7.4 1.29 9.4 3.87 2 2.587 3 6.613 3 12.08v0c0 5.433-1.007 9.44-3.02 12.02-2.02 2.587-5.147 3.88-9.38 3.88zM67.45-1.55c2.467 0 4.3-1.127 5.5-3.38 1.2-2.247 1.8-5.703 1.8-10.37v0c0-4.733-0.6-8.227-1.8-10.48-1.2-2.247-3.033-3.37-5.5-3.37v0c-2.467 0-4.293 1.117-5.48 3.35-1.18 2.233-1.77 5.733-1.77 10.5v0c0 4.733 0.59 8.207 1.77 10.42 1.187 2.22 3.013 3.33 5.48 3.33zM99.15-7.7c0 1.767-0.183 3.233-0.55 4.4-0.367 1.167-1.177 2.107-2.43 2.82-1.247 0.72-3.12 1.08-5.62 1.08v0c-2.367 0-4.107-0.383-5.22-1.15-1.12-0.767-1.83-1.76-2.13-2.98-0.3-1.213-0.45-2.853-0.45-4.92v0h4.5c0 2.533 0.24 4.317 0.72 5.35 0.487 1.033 1.397 1.55 2.73 1.55v0c1.3 0 2.183-0.46 2.65-1.38 0.467-0.913 0.7-2.503 0.7-4.77v0-22.95h5.1zM111.85-2.55h12.75v2.55h-17.85v-30.65h16.95v2.55h-11.85v11.15h10.8v2.65h-10.8zM146.8-22.3c-0.4-4.567-2.35-6.85-5.85-6.85v0c-1.9 0-3.367 0.5-4.4 1.5-1.033 1-1.75 2.483-2.15 4.45-0.4 1.967-0.6 4.6-0.6 7.9v0c0 3.267 0.2 5.873 0.6 7.82 0.4 1.953 1.117 3.43 2.15 4.43 1.033 1 2.5 1.5 4.4 1.5v0c2.1 0 3.61-0.71 4.53-2.13 0.913-1.413 1.403-3.403 1.47-5.97v0l4.15 0.15c-0.267 3.333-1.133 5.85-2.6 7.55-1.467 1.7-3.983 2.55-7.55 2.55v0c-3.133 0-5.6-0.61-7.4-1.83-1.8-1.213-3.057-2.97-3.77-5.27-0.72-2.3-1.08-5.233-1.08-8.8v0c0-3.567 0.36-6.51 1.08-8.83 0.713-2.313 1.963-4.08 3.75-5.3 1.78-1.213 4.253-1.82 7.42-1.82v0c3.367 0 5.783 0.69 7.25 2.07 1.467 1.387 2.367 3.43 2.7 6.13v0zM152.55-30.65h21.4v2.55h-8.1v28.1h-5.1v-28.1h-8.2zM186.8-31.25c3.133 0 5.55 0.74 7.25 2.22 1.7 1.487 2.75 3.763 3.15 6.83v0l-4.15 0.55c-0.167-2.4-0.79-4.25-1.87-5.55-1.087-1.3-2.547-1.95-4.38-1.95v0c-1.967 0-3.473 0.473-4.52 1.42-1.053 0.953-1.58 2.297-1.58 4.03v0c0 1.6 0.427 2.807 1.28 3.62 0.847 0.82 2.37 1.513 4.57 2.08v0l2.75 0.7c2.967 0.833 5.067 1.933 6.3 3.3 1.233 1.367 1.85 3.267 1.85 5.7v0c0 2.867-0.933 5.067-2.8 6.6-1.867 1.533-4.533 2.3-8 2.3v0c-3.3 0-5.823-0.743-7.57-2.23-1.753-1.48-2.813-3.753-3.18-6.82v0l4.05-0.6c0.267 2.4 0.967 4.25 2.1 5.55 1.133 1.3 2.667 1.95 4.6 1.95v0c4.333 0 6.5-1.833 6.5-5.5v0c0-1.1-0.183-1.983-0.55-2.65-0.367-0.667-0.973-1.227-1.82-1.68-0.853-0.447-2.097-0.87-3.73-1.27v0l-2.55-0.65c-2.967-0.767-5.04-1.843-6.22-3.23-1.187-1.38-1.78-3.337-1.78-5.87v0c0-2.9 0.877-5.1 2.63-6.6 1.747-1.5 4.303-2.25 7.67-2.25z" fill="#6575a8" fill-rule="nonzero" stroke="none" stroke-width="1" stroke-linecap="butt" stroke-linejoin="miter" stroke-miterlimit="10" stroke-dasharray="" stroke-dashoffset="0" font-family="none" font-weight="none" font-size="none" text-anchor="none" style="mix-blend-mode: normal" data-fill-palette-color="primary" opacity="1"></path><path transform="translate(0,69.7)" d="M20.65-22.3c-0.4-4.567-2.35-6.85-5.85-6.85v0c-1.9 0-3.367 0.5-4.4 1.5-1.033 1-1.75 2.483-2.15 4.45-0.4 1.967-0.6 4.6-0.6 7.9v0c0 3.267 0.2 5.873 0.6 7.82 0.4 1.953 1.117 3.43 2.15 4.43 1.033 1 2.5 1.5 4.4 1.5v0c2.1 0 3.61-0.71 4.53-2.13 0.913-1.413 1.403-3.403 1.47-5.97v0l4.15 0.15c-0.267 3.333-1.133 5.85-2.6 7.55-1.467 1.7-3.983 2.55-7.55 2.55v0c-3.133 0-5.6-0.61-7.4-1.83-1.8-1.213-3.057-2.97-3.77-5.27-0.72-2.3-1.08-5.233-1.08-8.8v0c0-3.567 0.36-6.51 1.08-8.83 0.713-2.313 1.963-4.08 3.75-5.3 1.78-1.213 4.253-1.82 7.42-1.82v0c3.367 0 5.783 0.69 7.25 2.07 1.467 1.387 2.367 3.43 2.7 6.13v0zM48.05 0l-2.95-9.15h-12.2l-2.9 9.15h-2.9l9.9-30.65h6.1l9.9 30.65zM33.7-11.6h10.6l-5.3-16.65zM67.65-30.65c3.533 0 6.033 0.907 7.5 2.72 1.467 1.82 2.2 4.18 2.2 7.08v0c0 2.9-0.733 5.25-2.2 7.05-1.467 1.8-3.967 2.7-7.5 2.7v0h-5v11.1h-5.1v-30.65zM66.95-12.9c1.833 0 3.177-0.7 4.03-2.1 0.847-1.4 1.27-3.35 1.27-5.85v0c0-2.467-0.423-4.4-1.27-5.8-0.853-1.4-2.197-2.1-4.03-2.1v0h-4.3v15.85zM91.35-31.25c3.133 0 5.55 0.74 7.25 2.22 1.7 1.487 2.75 3.763 3.15 6.83v0l-4.15 0.55c-0.167-2.4-0.79-4.25-1.87-5.55-1.087-1.3-2.547-1.95-4.38-1.95v0c-1.967 0-3.473 0.473-4.52 1.42-1.053 0.953-1.58 2.297-1.58 4.03v0c0 1.6 0.427 2.807 1.28 3.62 0.847 0.82 2.37 1.513 4.57 2.08v0l2.75 0.7c2.967 0.833 5.067 1.933 6.3 3.3 1.233 1.367 1.85 3.267 1.85 5.7v0c0 2.867-0.933 5.067-2.8 6.6-1.867 1.533-4.533 2.3-8 2.3v0c-3.3 0-5.823-0.743-7.57-2.23-1.753-1.48-2.813-3.753-3.18-6.82v0l4.05-0.6c0.267 2.4 0.967 4.25 2.1 5.55 1.133 1.3 2.667 1.95 4.6 1.95v0c4.333 0 6.5-1.833 6.5-5.5v0c0-1.1-0.183-1.983-0.55-2.65-0.367-0.667-0.973-1.227-1.82-1.68-0.853-0.447-2.097-0.87-3.73-1.27v0l-2.55-0.65c-2.967-0.767-5.04-1.843-6.22-3.23-1.187-1.38-1.78-3.337-1.78-5.87v0c0-2.9 0.873-5.1 2.62-6.6 1.753-1.5 4.313-2.25 7.68-2.25zM130-30.65v20.5c0 2.567-0.54 4.657-1.62 6.27-1.087 1.62-2.453 2.77-4.1 3.45-1.653 0.687-3.397 1.03-5.23 1.03v0c-3.3 0-6.04-0.827-8.22-2.48-2.187-1.647-3.28-4.403-3.28-8.27v0-20.5h5.1v20.5c0 2.867 0.61 4.957 1.83 6.27 1.213 1.32 2.853 1.98 4.92 1.98v0c2.133 0 3.943-0.677 5.43-2.03 1.48-1.347 2.22-3.42 2.22-6.22v0-20.5zM142.65-2.55h10.7v2.55h-15.8v-30.65h5.1zM162.95-2.55h12.75v2.55h-17.85v-30.65h16.95v2.55h-11.85v11.15h10.8v2.65h-10.8z" fill="#6575a8" fill-rule="nonzero" stroke="none" stroke-width="1" stroke-linecap="butt" stroke-linejoin="miter" stroke-miterlimit="10" stroke-dasharray="" stroke-dashoffset="0" font-family="none" font-weight="none" font-size="none" text-anchor="none" style="mix-blend-mode: normal" data-fill-palette-color="primary" opacity="1"></path></g></svg></g></svg></g></svg></g></svg></g><g transform="matrix(1,0,0,1,0,0.4999999999999858)"><svg viewBox="0 0 199.39778028707 200" height="200" width="199.39778028707"><g><svg xmlns="http://www.w3.org/2000/svg" xmlns:xlink="http://www.w3.org/1999/xlink" version="1.1" x="0" y="0" viewBox="5.13525 4.99975 89.72937500559267 90.00037500558997" enable-background="new 0 0 100 100" xml:space="preserve" height="200" width="199.39778028707" class="icon-icon-0" data-fill-palette-color="accent" id="icon-0"><g fill="#444444" data-fill-palette-color="accent"><g fill="#444444" data-fill-palette-color="accent"><path fill-rule="evenodd" clip-rule="evenodd" d="M88.579 11.305C80.197 2.898 66.609 2.898 58.228 11.305L36.983 32.615C36.189 33.411 35.495 34.267 34.851 35.148A22 22 0 0 0 32.601 37.082L11.406 58.342C3.045 66.729 3.045 80.325 11.406 88.711S33.322 97.096 41.683 88.711L62.878 67.452A21.5 21.5 0 0 0 64.806 65.196 21.6 21.6 0 0 0 67.333 63.057L88.578 41.747C96.96 33.342 96.96 19.712 88.579 11.305M58.717 58.936C53.776 61.877 47.302 61.232 43.053 56.969 38.804 52.707 38.16 46.213 41.092 41.257 46.034 38.251 52.554 38.875 56.823 43.157S61.714 53.979 58.717 58.936M35.628 82.637C30.612 87.668 22.478 87.668 17.461 82.637 12.445 77.606 12.445 69.447 17.461 64.416L30.937 50.899C31.571 55.347 33.57 59.636 36.981 63.058S44.669 68.484 49.103 69.12zM82.509 35.659L68.919 49.29C68.299 44.825 66.301 40.516 62.878 37.083S55.159 31.647 50.708 31.024L64.298 17.393C69.326 12.349 77.48 12.349 82.509 17.393 87.538 22.438 87.538 30.615 82.509 35.659" fill="#444444" data-fill-palette-color="accent"></path></g></g></svg></g></svg></g></svg></g><defs></defs></svg><rect width="395.52" height="126.37659476939746" fill="none" stroke="none" visibility="hidden"></rect></g></svg></g></svg>